<svg xmlns="http://www.w3.org/2000/svg" width="24" height="24" fill="none" viewBox="0 0 24 24">
  <path fill="#1F1F1F" d="M12 2.5c-4 0-8 .5-8 4V16c0 1.93 1.57 3.5 3.5 3.5l-1.5 1v1h12v-1l-1.5-1c1.93 0 3.5-1.57 3.5-3.5V6.5c0-3.5-3.58-4-8-4Zm0 2c3.71 0 5.13.46 5.67 1H6.43c.6-.52 2.05-1 5.57-1Zm-6 3h5v3H6v-3ZM18 16c0 .83-.67 1.5-1.5 1.5h-9c-.83 0-1.5-.67-1.5-1.5v-3.5h12V16Zm0-5.5h-5v-3h5v3Z"/>
  <path fill="#1F1F1F" d="M8.5 16.5a1.5 1.5 0 1 0 0-3 1.5 1.5 0 0 0 0 3Zm7 0a1.5 1.5 0 1 0 0-3 1.5 1.5 0 0 0 0 3Z"/>
</svg>
